# xmcd CD database file
# Copyright (C) 1996 Ti Kan
#
# Track frame offsets:
#	150
#	21123
#	49345
#	70116
#	90026
#	113516
#	136318
#	153622
#	174292
#	189261
#	207052
#	224393
#	242385
# Disc length: 3531 seconds
#
# Revision: 1
# Processed by: cddbd v1.5.1PL0 Copyright (c) Steve Scherf et al.
# Submitted via: CDCOPY 4.900
#
DISCID=9e0dc90d
DTITLE=Various Artist - Women's World Voices
DYEAR=1900
DGENRE=
TTITLE0=Awakening - Sasha Lazard
TTITLE1=Sweet Toffee - Moodorama
TTITLE2=Man's World - Natsha Atlas
TTITLE3=Amazing Sitar - Enseble Ethnique
TTITLE4=Je T'aime - Jazzamor
TTITLE5=Conmigo - Fous De La Mer
TTITLE6=Supa Love - Yinka
TTITLE7=Sonhando Ipanema - Barriere
TTITLE8=Hasdi Hasdi - Manpreet Kaur
TTITLE9=Love Trap - Susheela Raman
TTITLE10=Sandman Hermosa
TTITLE11=God's Window - Egyptian Nursery
TTITLE12=Demovast - !Deladap
EXTD=
EXTT0=
EXTT1=
EXTT2=
EXTT3=
EXTT4=
EXTT5=
EXTT6=
EXTT7=
EXTT8=
EXTT9=
EXTT10=
EXTT11=
EXTT12=
PLAYORDER=
